<?xml version="1.0" encoding="UTF-8"?>
<svg id="Layer_2" data-name="Layer 2" xmlns="http://www.w3.org/2000/svg" viewBox="0 0 1196.48 484.71">
  <defs>
    <style>
      .cls-1 {
        fill: #09090a;
        stroke-width: 0px;
      }

      .cls-2 {
        opacity: .35;
      }
    </style>
  </defs>
  <g id="Layer_1-2" data-name="Layer 1">
    <g>
      <g>
        <g>
          <path class="cls-1" d="M363.14,188.71c-12.51-10.93-25.02-21.86-37.52-32.79-2.33-55.85-20.97-89.46-36.31-107.87-20.58-24.67-48.57-37.36-79.79-40.52-4.82-10.67-29.44-9.62-34.79.79-19.07,2.77-36.96,9.2-53.6,18.29-30.79,16.82-52.85,48.02-63.79,90.23-8.19,31.56-7.35,57.84-7.31,58.94l.14,3.73,3.63.86c1.74.42,3.6.74,5.53.96-3.27,15-12.69,60.94-8.88,77.43,1.07,4.64,4.29,13.24,4.12,25.38-.5,32.2-30.82,73.32-54.56,95.69,1.42.28,10.36,1.97,17.86-3.92,4.17-3.27,5.97-7.36,6.7-9.4-.76,3.12-1.62,8.21-.81,14.41.76,5.82,2.69,10.29,4.14,13.07,2.98-7.71,7.05-12.18,9.7-11.55,2.46.59,3.35,5.46,3.6,7.09,1.2,9.12,4.87,12.09,6.75,13.17,6.48,3.74,17.5.02,25.92-6.64-2.42,5.43-3.59,11.22-2.5,17.2,2.36,13,14.72,22.29,65.34,51.45.33.16,33.04,19.98,59.35,19.98,47.39,0,85.95-53.63,77.05-74.18-2.52-5.82-7.48-7.9-12.2-18.59-.83-1.87-1.52-3.73-2.1-5.54,9.03-5.16,16.42-12.58,20-21.66.29-.74,4.18-10.88,2.37-18.21,6.17-9.89,11.12-21.35,16.08-33.64,16.56-41,22.34-86.09,17.22-134.1,15.04,5.13,27.41,10.9,35.22,14.56,5.76,2.7,7.84,3.64,9.49,3.89,2.17.35,4.27-.78,5.21-2.76.92-1.98.42-4.32-1.22-5.76ZM150.92,31.95c1.3-5.37,5.43-9.67,10.79-11.05,3.61-.92,7.31-1.73,11.29-2.4,3.25,4.97,9.79,4.9,18.71,4.82,5.69-.05,12.25.2,16.39-2.48.97-.62,1.79-1.4,2.45-2.38.2-.28.37-.59.53-.9,67.88,8.26,99.42,63.34,104.31,131.01-4.32-2.48-9.89-5.21-15.99-7.62,0,0-.03,0-.04-.02-6.1-2.4-12.38-4.37-18.79-5.95-36.23-8.9-76.79-5.2-113.93,4.1-8.94,2.23-17.82-3.58-19.38-12.66-5.2-30.38-4.68-60.26,3.65-94.48ZM264.08,414.43c5.27,12.11-25.63,60.48-68.05,60.48-.65,0-1.3,0-1.96-.03-26.59-.86-48.84-20.14-54.96-46.02-4.51-19.07-4.85-38.93,2.13-56.25,2.03-5.02,7.5-7.73,12.73-6.33,12.51,3.37,24.6,6.96,32.93,9.49,17.06,17.41,40.06,23.35,62.96,14.81,5.41,15.79,12.57,19.99,14.22,23.85ZM288.13,309.21c-4.44,10.99-8.83,21.25-14.1,30.1-4.14-1.04-9.27-.11-12.95,2.33-7.56,5.02-4.23,13.24-12.13,19.82-8.42,7.03-26.73,7.67-39.48-4.42-8.65-8.2-7.06-15.62-12.62-17.04-7.26-1.86-19.66,8.58-19.14,19.96-.02,0-.04-.02-.06-.04-.18-.07-2.62-1.47-3.06-1.73-3.74-3.74-41.76-20.35-65.73-67.35-1.89-3.72-3.44-7.6-4.86-11.51-6.55-18.01-18.12-13.92-22.64-14.81-2.93-.57-6.86-3.06-10.58-12.09,12.42-6.99,21.21-18.94,23.78-33.73.11-.61.99-.58,1.07.03.69,5.29,2.35,11.61,6.21,16.49.42-4.27,1.7-11.42,6.1-18.95,1.51-2.59,3.14-4.77,4.72-6.63,11.26,3.43,26.39,2.16,37.23-2,5.09,5.09,15.16,13.49,27.22,14.79,12.71,1.38,23.1-5.2,27.79-8.86,1.98-1.54,4.78-1.45,6.61.26,1.9,1.79,4.14,4.73,5.77,9.43,2.24,6.43,4.2,16.11,3.71,25.38-.86.24-10.5,2.98-11.74,9.04-1.26,6.19,6.32,15.54,20.41,17.81-6.42-7.04-6.98-14.72-4.07-17.34,2.83-2.55,8.86-.21,9.56.08.48-1.71,9.47-35.71-13.07-58.6-6.02-6.11-12.71-9.82-18.56-12.11,21.84-8.08,44.86-11.1,68.28-8.45-8.46,1.99-16.18,6.47-20.3,13.62-4.56,7.87-3.13,16.17-.66,30.5,2.86,16.62,9.23,30.33,10.57,29.95.94-.26-.39-9.66-3.05-28.43-1.65-11.59-2.75-17.97-.48-19.04,1.76-.82,3.88,2.44,8,5.01,14.52,9.05,33.49,8.89,40.41-7.97,1.22,37.85-4.86,73.56-18.15,106.48ZM307.48,166.29c-15.83-5.91-40.47-11.86-68.23-6.84-31.33,4.33-39.07,15.9-70.38,30.5l-24.07,9.18c-7.82,2.15-14.64,3.02-20.68,2.66-1.24-8.02-.82-15.12.56-21.31,2.76-12.37,11.98-22.33,24.08-26.11,49.35-15.41,108.07-22.71,153.37-1.61,7.28,3.39,13.98,7.89,20.01,13.19l3.97,3.49v-.06c2.21,1.93,4.41,3.86,6.63,5.79-8.23-3.33-16.86-6.41-25.25-8.86Z"/>
          <path class="cls-1" d="M249.21,283.6c-5.4,2.09-5.42,2.92-8.05,3.19-3.5.36-14.55-3.55-17.98-4.06-6.96-1.04-12.83,1.51-16.12,2.94-4.72,2.05-7.69,4.49-11.4,7.58-4.03,3.36-9.52,8.54-15.06,15.99,49.07-12.59,51.74-14.41,61.76-14.5,13.28-.12,31.83,4.16,44.22,8.3-.38-1.54-1.1-4.02-2.51-6.84-7.85-15.78-19.11-18.71-34.86-12.6Z"/>
          <path class="cls-1" d="M246.3,311.45c-5.71-1.5-11.34-.75-16.91,2.2-1.91,1.01-3.21,2.89-3.49,5.03-1.68,13-1.7,17.74-.86,17.92,1.6.34,5.78-15.89,8.23-15.46,2.44.43.82,16.96,2.93,17.27,2.11.31,5.53-15.93,7.56-15.62,1.87.28.61,14.44,1.99,14.64.81.11,2.42-4.62,5.36-18.14.76-3.48-1.37-6.94-4.81-7.84Z"/>
        </g>
        <g class="cls-2">
          <path class="cls-1" d="M223.25,478.97c-4.29-11.64-2.85-18.82-.83-23.17,4.33-9.37,13.36-10.11,17.86-21.5.49-1.23,4.45-11.25.29-15.54-5.46-5.62-21.3,2.3-25.2,4.24-4.7,2.35-8.62,5.08-11.8,7.74-3.19,2.66-5.65,5.24-7.44,7.32,15.43-24.76,15.83-32.97,15.83-32.97.23-4.56-.52-11.01-4.98-18.94,6.48,3.19,14.35,5.4,23.44,5.05,9.48-.37,19.29-3.5,27.26-8.75.73,3.05,1.75,6.24,3.2,9.49,4.72,10.68,9.69,12.76,12.2,18.59,7.18,16.6-16.45,54.1-49.83,68.43Z"/>
          <path class="cls-1" d="M233.68,165.37c-10.69,2.11-21.22,5.91-31.18,11.93-11.79,7.12-22.27,12.76-31.62,17.13l-.06.03-24.49,9.33c-12.2,3.38-21.84,3.72-29.78,1.86-15.55-3.65-24.52-15.75-33.44-30.04,23.03-11.36,46.18-20.59,68.83-27.37,0,0,25.84,22.35,81.75,17.13Z"/>
          <path class="cls-1" d="M180.89,361.7c-.22-.12-.44-.24-.68-.35-.31-.17-.62-.33-.93-.51-.11-.06-.23-.12-.32-.18-.43-.24-.86-.47-1.3-.72-.04-.03-.1-.06-.16-.1-.48-.26-.97-.53-1.45-.81-.08-.04-.16-.09-.25-.14-.39-.23-.8-.46-1.2-.69,0,0-.02,0-.03-.02-.73-.42-1.43-.85-2.16-1.28-1.14-.69-2.26-1.38-3.36-2.09-1.46-.92-2.87-1.84-4.24-2.77-.13-.09-.25-.17-.37-.25-1.02-.69-2.02-1.37-2.99-2.06-2.93-2.05-5.65-4.08-8.15-6.02-.84-.64-1.65-1.27-2.43-1.9-.39-.32-.79-.64-1.18-.96-.74-.59-1.46-1.18-2.15-1.74-.03-.04-.06-.07-.09-.09-.66-.55-1.3-1.08-1.9-1.6-.42-.36-.83-.71-1.22-1.05-.52-.43-1-.85-1.45-1.25-2.32-2.05-4.05-3.68-5.1-4.69-.19-.18-.35-.33-.49-.47-.07-.07-.14-.14-.22-.2l-.16-.17c-.11-.1-.17-.17-.23-.23-16.99-17.04-26.42-34.8-31.46-46.11-1.69-6.07-4.26-11.85-8.2-14.9-2.25-1.74-4.53-2.64-4.53-2.64-4.83-1.89-8.02-.56-11.16-1.18-2.93-.57-6.86-3.06-10.59-12.09,3.99-2.24,10.29-6.52,15.6-13.94,4.93-6.91,7.2-14.03,8.2-19.79.11-.61.99-.58,1.07.03.69,5.29,2.35,11.61,6.2,16.49.43-4.27,1.71-11.42,6.11-18.95,2.81-4.8,6.03-8.28,8.6-10.65,7.94,1.86,17.58,1.52,29.78-1.86,0,0-23.94,92.27,34.56,157.91Z"/>
          <path class="cls-1" d="M243.32,42.09c21.47,7.47,37.24,26.72,45.22,47.49,2.58,7.03,4.35,14.36,4.55,21.89.07,2.63-2.01,4.83-4.64,4.9-1.73.05-3.25-.83-4.14-2.18-2.01-2.91-3.81-5.8-5.62-8.64-5.3-8.32-10.71-16.58-16.52-24.43-5.56-7.54-12.19-15.8-18.03-23.27-2.09-2.7-4.24-5.41-6.27-8.42-2.59-3.73,1.19-8.74,5.46-7.34h0Z"/>
        </g>
      </g>
      <g>
        <path class="cls-1" d="M484.43,135.84h27.29l-38.73,63.81v40.64h-24.79v-40.64l-39.17-63.81h28.02l9.1,15.11c3.33,5.77,5.87,10.17,7.63,13.2.78,1.47,1.74,3.18,2.86,5.13s2.03,3.52,2.71,4.69,1.27,2.15,1.76,2.93c5.48-10.07,10.32-18.78,14.52-26.11l8.8-14.96Z"/>
        <path class="cls-1" d="M574.37,240.29l-6.16-18.19h-43.42l-6.01,18.19h-25.38l38.44-104.45h29.49l39.31,104.45h-26.26ZM531.68,201.42h29.49l-6.01-17.9c-1.86-5.28-4.79-14.08-8.8-26.41-5.18,15.94-8.07,24.74-8.66,26.41l-6.01,17.9Z"/>
        <path class="cls-1" d="M609.25,232.96c-7.92-6.46-11.93-15.45-12.03-26.99h24.06c.1,6.45,1.98,10.95,5.65,13.5s9.32,3.81,16.94,3.81c11.83,0,17.75-4.01,17.75-12.03,0-3.52-1.3-6.14-3.89-7.85-2.59-1.71-7.56-3.25-14.89-4.62l-8.51-1.61c-23.28-3.91-34.91-14.82-34.91-32.71,0-9.49,3.54-17.02,10.64-22.59,7.09-5.57,17.14-8.36,30.15-8.36,13.89,0,24.5,2.93,31.83,8.8,7.33,5.87,11.25,14.28,11.74,25.23h-23.47c-.29-5.08-1.98-8.8-5.06-11.15-3.08-2.35-7.95-3.52-14.6-3.52-10.66,0-15.99,3.52-15.99,10.56,0,3.52,1.3,6.21,3.89,8.07,2.59,1.86,7.21,3.42,13.86,4.69l8.8,1.61c12.62,2.25,21.78,5.89,27.51,10.93,5.72,5.04,8.58,12,8.58,20.9,0,10.66-3.91,18.83-11.74,24.5-7.82,5.67-18.68,8.51-32.57,8.51-14.57,0-25.82-3.23-33.74-9.68Z"/>
        <path class="cls-1" d="M701.9,232.96c-7.92-6.46-11.93-15.45-12.03-26.99h24.06c.1,6.45,1.98,10.95,5.65,13.5s9.32,3.81,16.94,3.81c11.83,0,17.75-4.01,17.75-12.03,0-3.52-1.3-6.14-3.89-7.85-2.59-1.71-7.56-3.25-14.89-4.62l-8.51-1.61c-23.28-3.91-34.91-14.82-34.91-32.71,0-9.49,3.54-17.02,10.64-22.59,7.09-5.57,17.14-8.36,30.15-8.36,13.89,0,24.5,2.93,31.83,8.8,7.33,5.87,11.25,14.28,11.74,25.23h-23.47c-.29-5.08-1.98-8.8-5.06-11.15-3.08-2.35-7.95-3.52-14.6-3.52-10.66,0-15.99,3.52-15.99,10.56,0,3.52,1.3,6.21,3.89,8.07,2.59,1.86,7.21,3.42,13.86,4.69l8.8,1.61c12.62,2.25,21.78,5.89,27.51,10.93,5.72,5.04,8.58,12,8.58,20.9,0,10.66-3.91,18.83-11.74,24.5-7.82,5.67-18.68,8.51-32.57,8.51-14.57,0-25.82-3.23-33.74-9.68Z"/>
        <path class="cls-1" d="M867.91,157.99h-55.01v18.92h50.02v20.83h-50.02v20.39h54.86v22.15h-79.66v-104.45h79.8v22.15Z"/>
        <path class="cls-1" d="M964,229c.1,4.69,1.08,8.46,2.93,11.3h-25.53c-1.56-2.93-2.4-6.75-2.49-11.44l-.44-11.74c-.2-5.77-1.49-9.75-3.89-11.96-2.4-2.2-6.23-3.3-11.52-3.3h-20.24v38.43h-24.79v-104.45h49.44c12.23,0,21.59,2.71,28.09,8.14,6.5,5.43,9.76,12.79,9.76,22.08,0,12.03-5.62,20.29-16.87,24.79,5.38,1.76,9.12,4.45,11.22,8.07,2.1,3.62,3.3,8.75,3.59,15.4l.73,14.67ZM902.83,183.23h21.86c4.79,0,8.51-1.2,11.15-3.59,2.64-2.4,3.96-5.84,3.96-10.34,0-9.09-5.18-13.64-15.55-13.64h-21.42v27.58Z"/>
        <path class="cls-1" d="M426.93,369.2c-9.58-9.88-14.38-23.13-14.38-39.75s4.69-30.12,14.08-39.9c9.39-9.78,22.05-14.67,38-14.67,12.91,0,23.86,3.42,32.86,10.27,9.19,6.94,14.72,16.77,16.58,29.49h-25.09c-1.56-5.87-4.47-10.39-8.73-13.57-4.25-3.18-9.46-4.77-15.62-4.77-8.41,0-14.89,2.88-19.44,8.66-4.55,5.77-6.82,13.94-6.82,24.5s2.27,18.73,6.82,24.5c4.55,5.77,11.03,8.66,19.44,8.66,6.45,0,11.93-1.86,16.43-5.58,4.5-3.72,7.33-8.9,8.51-15.55h24.79c-1.56,13.5-6.89,23.96-15.99,31.39-9.19,7.43-20.44,11.15-33.74,11.15-15.55,0-28.12-4.94-37.7-14.82Z"/>
        <path class="cls-1" d="M608.35,370.37c.1,4.69,1.08,8.46,2.93,11.3h-25.53c-1.56-2.93-2.4-6.75-2.49-11.44l-.44-11.74c-.2-5.77-1.49-9.75-3.89-11.96-2.4-2.2-6.23-3.3-11.52-3.3h-20.24v38.43h-24.79v-104.45h49.44c12.23,0,21.59,2.71,28.09,8.14,6.5,5.43,9.76,12.79,9.76,22.08,0,12.03-5.62,20.29-16.87,24.79,5.38,1.76,9.12,4.45,11.22,8.07,2.1,3.62,3.3,8.75,3.59,15.4l.73,14.67ZM547.17,324.6h21.86c4.79,0,8.51-1.2,11.15-3.59,2.64-2.4,3.96-5.84,3.96-10.34,0-9.09-5.18-13.64-15.55-13.64h-21.42v27.58Z"/>
        <path class="cls-1" d="M699.52,299.37h-55.01v18.92h50.02v20.83h-50.02v20.39h54.86v22.15h-79.66v-104.45h79.8v22.15Z"/>
        <path class="cls-1" d="M782.27,381.67l-6.16-18.19h-43.42l-6.01,18.19h-25.38l38.44-104.45h29.49l39.31,104.45h-26.26ZM739.58,342.79h29.49l-6.01-17.9c-1.86-5.28-4.79-14.08-8.8-26.41-5.18,15.94-8.07,24.74-8.66,26.41l-6.01,17.9Z"/>
        <path class="cls-1" d="M882.08,277.22v22.15h-32.13v82.3h-24.94v-82.3h-31.98v-22.15h89.05Z"/>
        <path class="cls-1" d="M886.62,381.67v-104.45h24.79v104.45h-24.79Z"/>
        <path class="cls-1" d="M992.98,277.22h25.53l-36.53,104.45h-29.34l-37.7-104.45h26.55l15.26,45.92c4.79,14.96,8.36,27.19,10.71,36.67,3.42-13.4,6.89-25.62,10.42-36.67l15.11-45.92Z"/>
        <path class="cls-1" d="M1102.07,299.37h-55.01v18.92h50.02v20.83h-50.02v20.39h54.86v22.15h-79.66v-104.45h79.8v22.15Z"/>
        <path class="cls-1" d="M1118.44,374.33c-7.92-6.46-11.93-15.45-12.03-26.99h24.06c.1,6.45,1.98,10.95,5.65,13.5s9.32,3.81,16.94,3.81c11.83,0,17.75-4.01,17.75-12.03,0-3.52-1.3-6.14-3.89-7.85s-7.56-3.25-14.89-4.62l-8.51-1.61c-23.28-3.91-34.91-14.82-34.91-32.71,0-9.49,3.54-17.02,10.64-22.59,7.09-5.57,17.14-8.36,30.15-8.36,13.89,0,24.5,2.93,31.83,8.8,7.33,5.87,11.25,14.28,11.74,25.23h-23.47c-.29-5.09-1.98-8.8-5.06-11.15-3.08-2.35-7.95-3.52-14.6-3.52-10.66,0-15.99,3.52-15.99,10.56,0,3.52,1.3,6.21,3.89,8.07,2.59,1.86,7.21,3.42,13.86,4.69l8.8,1.61c12.62,2.25,21.78,5.89,27.51,10.93,5.72,5.04,8.58,12,8.58,20.9,0,10.66-3.91,18.83-11.74,24.5-7.82,5.67-18.68,8.51-32.57,8.51-14.57,0-25.82-3.23-33.74-9.68Z"/>
      </g>
    </g>
  </g>
</svg>