<?xml version="1.0" encoding="UTF-8"?>
<svg id="Layer_2" data-name="Layer 2" xmlns="http://www.w3.org/2000/svg" viewBox="0 0 1208.52 484.71">
  <defs>
    <style>
      .cls-1 {
        opacity: .2;
      }

      .cls-2 {
        fill: #0f0f0f;
      }

      .cls-2, .cls-3 {
        stroke-width: 0px;
      }

      .cls-3 {
        fill: #fff;
      }
    </style>
  </defs>
  <g id="Layer_1-2" data-name="Layer 1">
    <g>
      <g>
        <path class="cls-3" d="M496.47,135.84h27.29l-38.73,63.81v40.64h-24.79v-40.64l-39.17-63.81h28.02l9.1,15.11c3.33,5.77,5.87,10.17,7.63,13.2.78,1.47,1.74,3.18,2.86,5.13s2.03,3.52,2.71,4.69,1.27,2.15,1.76,2.93c5.48-10.07,10.32-18.78,14.52-26.11l8.8-14.96Z"/>
        <path class="cls-3" d="M586.41,240.29l-6.16-18.19h-43.42l-6.01,18.19h-25.38l38.44-104.45h29.49l39.31,104.45h-26.26ZM543.72,201.42h29.49l-6.01-17.9c-1.86-5.28-4.79-14.08-8.8-26.41-5.18,15.94-8.07,24.74-8.66,26.41l-6.01,17.9Z"/>
        <path class="cls-3" d="M621.29,232.96c-7.92-6.46-11.93-15.45-12.03-26.99h24.06c.1,6.45,1.98,10.95,5.65,13.5s9.32,3.81,16.94,3.81c11.83,0,17.75-4.01,17.75-12.03,0-3.52-1.3-6.14-3.89-7.85-2.59-1.71-7.56-3.25-14.89-4.62l-8.51-1.61c-23.28-3.91-34.91-14.82-34.91-32.71,0-9.49,3.54-17.02,10.64-22.59,7.09-5.57,17.14-8.36,30.15-8.36,13.89,0,24.5,2.93,31.83,8.8,7.33,5.87,11.25,14.28,11.74,25.23h-23.47c-.29-5.08-1.98-8.8-5.06-11.15-3.08-2.35-7.95-3.52-14.6-3.52-10.66,0-15.99,3.52-15.99,10.56,0,3.52,1.3,6.21,3.89,8.07,2.59,1.86,7.21,3.42,13.86,4.69l8.8,1.61c12.62,2.25,21.78,5.89,27.51,10.93,5.72,5.04,8.58,12,8.58,20.9,0,10.66-3.91,18.83-11.74,24.5-7.82,5.67-18.68,8.51-32.57,8.51-14.57,0-25.82-3.23-33.74-9.68Z"/>
        <path class="cls-3" d="M713.94,232.96c-7.92-6.46-11.93-15.45-12.03-26.99h24.06c.1,6.45,1.98,10.95,5.65,13.5s9.32,3.81,16.94,3.81c11.83,0,17.75-4.01,17.75-12.03,0-3.52-1.3-6.14-3.89-7.85-2.59-1.71-7.56-3.25-14.89-4.62l-8.51-1.61c-23.28-3.91-34.91-14.82-34.91-32.71,0-9.49,3.54-17.02,10.64-22.59,7.09-5.57,17.14-8.36,30.15-8.36,13.89,0,24.5,2.93,31.83,8.8,7.33,5.87,11.25,14.28,11.74,25.23h-23.47c-.29-5.08-1.98-8.8-5.06-11.15-3.08-2.35-7.95-3.52-14.6-3.52-10.66,0-15.99,3.52-15.99,10.56,0,3.52,1.3,6.21,3.89,8.07,2.59,1.86,7.21,3.42,13.86,4.69l8.8,1.61c12.62,2.25,21.78,5.89,27.51,10.93,5.72,5.04,8.58,12,8.58,20.9,0,10.66-3.91,18.83-11.74,24.5-7.82,5.67-18.68,8.51-32.57,8.51-14.57,0-25.82-3.23-33.74-9.68Z"/>
        <path class="cls-3" d="M879.94,157.99h-55.01v18.92h50.02v20.83h-50.02v20.39h54.86v22.15h-79.66v-104.45h79.8v22.15Z"/>
        <path class="cls-3" d="M976.04,229c.1,4.69,1.08,8.46,2.93,11.3h-25.53c-1.56-2.93-2.4-6.75-2.49-11.44l-.44-11.74c-.2-5.77-1.49-9.75-3.89-11.96-2.4-2.2-6.23-3.3-11.52-3.3h-20.24v38.43h-24.79v-104.45h49.44c12.23,0,21.59,2.71,28.09,8.14,6.5,5.43,9.76,12.79,9.76,22.08,0,12.03-5.62,20.29-16.87,24.79,5.38,1.76,9.12,4.45,11.22,8.07,2.1,3.62,3.3,8.75,3.59,15.4l.73,14.67ZM914.87,183.23h21.86c4.79,0,8.51-1.2,11.15-3.59,2.64-2.4,3.96-5.84,3.96-10.34,0-9.09-5.18-13.64-15.55-13.64h-21.42v27.58Z"/>
        <path class="cls-3" d="M438.96,369.2c-9.58-9.88-14.38-23.13-14.38-39.75s4.69-30.12,14.08-39.9c9.39-9.78,22.05-14.67,38-14.67,12.91,0,23.86,3.42,32.86,10.27,9.19,6.94,14.72,16.77,16.58,29.49h-25.09c-1.56-5.87-4.47-10.39-8.73-13.57-4.25-3.18-9.46-4.77-15.62-4.77-8.41,0-14.89,2.88-19.44,8.66-4.55,5.77-6.82,13.94-6.82,24.5s2.27,18.73,6.82,24.5c4.55,5.77,11.03,8.66,19.44,8.66,6.45,0,11.93-1.86,16.43-5.58,4.5-3.72,7.33-8.9,8.51-15.55h24.79c-1.56,13.5-6.89,23.96-15.99,31.39-9.19,7.43-20.44,11.15-33.74,11.15-15.55,0-28.12-4.94-37.7-14.82Z"/>
        <path class="cls-3" d="M620.38,370.37c.1,4.69,1.08,8.46,2.93,11.3h-25.53c-1.56-2.93-2.4-6.75-2.49-11.44l-.44-11.74c-.2-5.77-1.49-9.75-3.89-11.96-2.4-2.2-6.23-3.3-11.52-3.3h-20.24v38.43h-24.79v-104.45h49.44c12.23,0,21.59,2.71,28.09,8.14,6.5,5.43,9.76,12.79,9.76,22.08,0,12.03-5.62,20.29-16.87,24.79,5.38,1.76,9.12,4.45,11.22,8.07,2.1,3.62,3.3,8.75,3.59,15.4l.73,14.67ZM559.21,324.6h21.86c4.79,0,8.51-1.2,11.15-3.59,2.64-2.4,3.96-5.84,3.96-10.34,0-9.09-5.18-13.64-15.55-13.64h-21.42v27.58Z"/>
        <path class="cls-3" d="M711.55,299.37h-55.01v18.92h50.02v20.83h-50.02v20.39h54.86v22.15h-79.66v-104.45h79.8v22.15Z"/>
        <path class="cls-3" d="M794.3,381.67l-6.16-18.19h-43.42l-6.01,18.19h-25.38l38.44-104.45h29.49l39.31,104.45h-26.26ZM751.61,342.79h29.49l-6.01-17.9c-1.86-5.28-4.79-14.08-8.8-26.41-5.18,15.94-8.07,24.74-8.66,26.41l-6.01,17.9Z"/>
        <path class="cls-3" d="M894.11,277.22v22.15h-32.13v82.3h-24.94v-82.3h-31.98v-22.15h89.05Z"/>
        <path class="cls-3" d="M898.66,381.67v-104.45h24.79v104.45h-24.79Z"/>
        <path class="cls-3" d="M1005.01,277.22h25.53l-36.53,104.45h-29.34l-37.7-104.45h26.55l15.26,45.92c4.79,14.96,8.36,27.19,10.71,36.67,3.42-13.4,6.89-25.62,10.42-36.67l15.11-45.92Z"/>
        <path class="cls-3" d="M1114.11,299.37h-55.01v18.92h50.02v20.83h-50.02v20.39h54.86v22.15h-79.66v-104.45h79.8v22.15Z"/>
        <path class="cls-3" d="M1130.48,374.33c-7.92-6.46-11.93-15.45-12.03-26.99h24.06c.1,6.45,1.98,10.95,5.65,13.5,3.67,2.54,9.32,3.81,16.94,3.81,11.83,0,17.75-4.01,17.75-12.03,0-3.52-1.29-6.14-3.89-7.85s-7.56-3.25-14.89-4.62l-8.51-1.61c-23.28-3.91-34.91-14.82-34.91-32.71,0-9.49,3.54-17.02,10.64-22.59,7.09-5.57,17.14-8.36,30.15-8.36,13.89,0,24.5,2.93,31.83,8.8s11.25,14.28,11.74,25.23h-23.47c-.29-5.09-1.98-8.8-5.06-11.15-3.08-2.35-7.95-3.52-14.6-3.52-10.66,0-15.99,3.52-15.99,10.56,0,3.52,1.3,6.21,3.89,8.07,2.59,1.86,7.21,3.42,13.86,4.69l8.8,1.61c12.62,2.25,21.78,5.89,27.51,10.93,5.72,5.04,8.58,12,8.58,20.9,0,10.66-3.91,18.83-11.74,24.5-7.82,5.67-18.68,8.51-32.57,8.51-14.57,0-25.82-3.23-33.74-9.68Z"/>
      </g>
      <g>
        <g>
          <path class="cls-3" d="M184.36,144.47c1.09,0,2.19-.14,3.26-.4,22.93-5.74,44.89-8.65,65.27-8.65,15.07,0,29.29,1.62,42.27,4.81,6.18,1.52,12.17,3.42,17.81,5.64l.23.08.02.02.1.04h0c4.28,1.71,8.57,3.71,12.38,5.74-3.52-41.46-20.83-108.88-95.26-118.51-.02.03-.04.05-.05.08-.7,1.05-1.63,1.95-2.73,2.65-3.89,2.51-9.62,2.54-14.68,2.55h-1.48c-1.07.02-2.05.03-3,.03-6.38,0-11.95-.35-15.23-4.4-3.21.57-6.34,1.25-9.54,2.06-4.46,1.15-7.92,4.69-9.02,9.25-7.39,30.37-8.47,58.32-3.4,87.96,1.1,6.41,6.59,11.05,13.05,11.05Z"/>
          <path class="cls-3" d="M299.21,219.8c-6.22,0-12.97-2.07-19-5.83-1.59-.99-2.88-2.08-3.91-2.96-.79-.67-1.87-1.59-2.25-1.63-.8.85.16,7.5,1.08,13.93l.36,2.53c3.78,26.72,3.83,27.51,1.74,28.1l-.2.06h-.26c-3.59,0-9.36-17.79-11.34-29.33-2.34-13.56-3.75-21.75.8-29.61,2.73-4.74,7.21-8.56,12.95-11.12-2.71-.16-5.42-.24-8.11-.24-14.97,0-29.87,2.5-44.36,7.42,5.43,2.58,10.24,5.98,14.34,10.15,21.91,22.25,13.02,55.03,12.63,56.41l-.46,1.64-1.57-.65c-.26-.11-2.66-1.06-4.89-1.06-1.12,0-1.95.24-2.48.71-.62.56-1,1.59-1.07,2.9-.17,3.41,1.7,7.6,4.99,11.21l2.93,3.21-4.29-.69c-7.85-1.27-14.65-5.08-18.19-10.21-1.93-2.79-2.71-5.74-2.18-8.28,1.14-5.53,8.04-8.34,11.03-9.31.26-8.31-1.58-16.82-3.44-22.15-1.21-3.46-2.89-6.23-5.02-8.24-.59-.55-1.36-.86-2.18-.86-.73,0-1.46.25-2.04.7-4.21,3.29-12.9,8.8-23.73,8.8-1.14,0-2.29-.06-3.42-.18-11.28-1.22-20.73-8.77-25.73-13.62-6.18,2.22-13.7,3.48-20.8,3.48-4.83,0-9.26-.55-13.2-1.64-1.37,1.68-2.57,3.41-3.64,5.24-3.05,5.22-4.91,10.99-5.52,17.15l-.37,3.74-2.33-2.95c-2.38-3.02-4.13-6.81-5.23-11.32-3.21,11.47-10.44,20.96-20.77,27.15,2.46,5.52,5.24,8.62,8.28,9.21.56.11,1.38.12,2.11.12h1.1c4.48,0,13.79,0,19.15,14.74,1.59,4.38,2.97,7.65,4.49,10.62,18.36,35.99,45.11,52.47,56.53,59.51,2.37,1.46,3.86,2.38,4.65,3.09.15.08.36.21.6.34.49-4.16,2.56-8.37,5.9-11.86,3.61-3.78,8.02-6.03,11.78-6.03.72,0,1.41.08,2.06.25,3.31.85,4.48,3.44,5.83,6.43,1.26,2.79,2.82,6.26,6.67,9.91,5.74,5.44,13.2,8.44,21.01,8.44,5.57,0,10.67-1.59,13.99-4.36,3.33-2.78,4.29-5.83,5.31-9.06,1.07-3.42,2.18-6.95,6.19-9.62,2.71-1.8,6.23-2.83,9.65-2.83.89,0,1.75.07,2.58.21,4.4-7.58,8.23-16.35,12.57-27.09.43-1.05.83-2.12,1.24-3.18l-1.77-.59c-11.46-3.84-28.42-7.71-40.47-7.71h-.5c-6.38.06-9.45.88-26.5,5.42-7.27,1.94-17.23,4.59-31.03,8.13l-4.15,1.06,2.55-3.43c4.25-5.71,9.08-10.84,14.37-15.25,3.39-2.83,6.32-5.28,11.05-7.33,2.68-1.16,7.16-3.11,12.63-3.11,1.11,0,2.23.08,3.31.24,1.28.19,3.43.8,5.92,1.5,3.64,1.03,8.18,2.31,10.24,2.31.11,0,.22,0,.31-.01,1.11-.11,1.53-.32,2.65-.89.94-.47,2.22-1.12,4.5-2.01,5-1.94,9.37-2.88,13.35-2.88,9.13,0,16.08,5.05,21.24,15.43,1.06,2.14,1.89,4.4,2.46,6.73l.29,1.18c10.53-27.74,15.69-57.69,15.33-89.19-4.14,5.79-10.46,8.91-18.29,8.91ZM242.03,313.72c.32-2.49,1.84-4.68,4.06-5.86,3.68-1.95,7.45-2.94,11.21-2.94,1.9,0,3.83.25,5.74.76,4.03,1.06,6.49,5.07,5.6,9.14-3.94,18.1-4.95,18.2-6.46,18.2h-.13l-.13-.02c-1.87-.26-1.92-2.39-2.04-7.53-.03-1.18-.07-2.79-.16-4.14-.51,1.3-1.06,2.9-1.5,4.15-2.02,5.86-3,8.45-4.98,8.45h-.11l-.17-.02c-2.2-.32-2.31-3.43-2.53-9.06-.07-1.81-.17-4.52-.43-6.15-.87,1.6-2,4.5-2.75,6.43-2.1,5.4-2.84,7.1-4.47,7.1h-.16l-.21-.04c-1.62-.35-2.69-.58-.38-18.47Z"/>
          <path class="cls-3" d="M314.35,159.71c-17.27-8.04-37.81-12.12-61.04-12.12-24.7,0-52.93,4.74-81.65,13.71-10.83,3.39-19.08,12.34-21.54,23.37-1.29,5.78-1.52,11.89-.68,18.19.4.01.81.02,1.22.02,4.91,0,10.29-.82,16.45-2.51l22.42-8.56c9.74-4.55,17.13-8.84,23.64-12.63,12.8-7.44,22.92-13.32,42.67-16.05,6.51-1.18,13.29-1.78,20.08-1.78,18.56,0,34.5,4.5,44.62,8.28,4.97,1.45,10.19,3.18,15.57,5.17l-3.36-2.96c-5.71-5.02-11.9-9.1-18.4-12.13Z"/>
          <path class="cls-3" d="M382.16,180.65l-30.36-26.54c-3.53-52.83-22-85.41-37.18-103.63-19.74-23.67-46.16-37.98-78.61-42.59-5.64-5.03-13.77-7.9-23.04-7.9-8.21,0-18.37,2.44-25.42,8.92-16.84,3.12-33.46,9.13-49.49,17.88-32.63,17.83-55.87,50.36-67.2,94.09-8.21,31.64-7.37,58.47-7.33,59.62l.55,15.01,5.42,1.29c-6.11,31.23-7.86,52.85-5.21,64.35.24,1.03.56,2.23.94,3.59,1.11,4.05,2.64,9.59,2.54,16.57-.36,23.46-23.62,57.46-46.39,78.92L0,380.35l28.77,5.76c2.34.47,4.8.71,7.29.71,1.78,0,3.82-.12,6.02-.48.69,1.77,1.48,3.51,2.37,5.21l15.5,29.65,6.6-17.08c.87.66,1.72,1.22,2.55,1.7,3.94,2.27,8.44,3.43,13.38,3.43.71,0,1.42-.03,2.15-.07,5,17.38,22.08,28.52,67.69,54.8l.18.11c10.65,6.21,38.12,20.65,63.02,20.65,34.9,0,63.26-24.34,76.95-45.17,11.07-16.86,14.42-33.46,9.19-45.53-1.9-4.39-4.4-7.36-6.41-9.74-.62-.73-1.19-1.41-1.74-2.12,6.16-5.61,10.8-12.19,13.64-19.4.75-1.87,3.9-10.26,3.76-19.31,4.87-8.59,9-18.06,13.54-29.29,13.59-33.67,19.9-70.1,18.82-108.55,3.92,1.73,7.27,3.3,9.89,4.53,6.14,2.87,9.22,4.31,12.89,4.88,1.04.17,2.1.25,3.16.25,7.6,0,14.61-4.46,17.87-11.41,3.67-7.89,1.67-17.41-4.9-23.2ZM374.71,198.1c-1.01,2.14-3.17,3.53-5.52,3.53-.32,0-.65-.03-.98-.08-1.75-.27-3.76-1.18-9.3-3.77-6.63-3.1-17.48-8.18-30.63-12.81,4.39,44.37-1.16,86.11-16.49,124.08-4.99,12.35-9.44,22.43-14.86,31.25,1.49,7.45-2.27,16.95-2.43,17.36-3.19,8.1-9.51,15.14-18.33,20.44.46,1.35.97,2.63,1.53,3.89,2.45,5.54,4.93,8.48,7.12,11.08,1.66,1.96,3.22,3.82,4.32,6.36,3.32,7.67.31,19.87-8.07,32.63-11.82,18-36.08,39.02-65.55,39.02-22.19,0-48.59-14.39-56.16-18.79l-.2-.12c-46.65-26.88-59.61-36.04-62.02-49.3-.72-3.99-.47-8.14.75-12.38-5.23,3.25-10.75,5.11-15.41,5.11-2.51,0-4.72-.54-6.56-1.6-3.76-2.17-6.21-6.83-7.08-13.47-.5-3.29-1.5-5.19-2.22-5.37h-.01c-1.49,0-4.71,3.15-7.31,9.9l-1.21,3.12-1.55-2.97c-2.09-4.01-3.45-8.3-4.04-12.76-.28-2.12-.37-4.24-.29-6.35-.79.91-1.72,1.81-2.79,2.65-4.64,3.65-9.83,4.41-13.36,4.41-1.1,0-2.79-.08-4.62-.44l-2.88-.58,2.14-2.01c24.1-22.7,50.23-60.13,50.68-88.64.13-8.94-1.77-15.83-3.03-20.4-.32-1.15-.6-2.17-.8-3.03-3.45-14.94,4.15-53.89,7.98-71.65-1.32-.2-2.57-.44-3.71-.71l-4.51-1.07-.17-4.64c-.04-1.05-.79-26.03,6.9-55.7,10.36-39.99,31.3-69.57,60.54-85.55,16.22-8.86,33.05-14.64,50.02-17.21,3.35-5.47,11.51-7.92,18.36-7.92,7.57,0,13.67,2.71,16.18,7.14,31.29,3.35,56.52,16.28,75,38.44,14.41,17.29,32.04,48.89,34.36,101.39,11.55,10.1,23.12,20.21,34.68,30.31,2.03,1.79,2.65,4.74,1.52,7.18Z"/>
          <path class="cls-3" d="M265.07,383.25c-6.14,2.12-12.37,3.19-18.56,3.19-14.95,0-28.9-6.11-40.36-17.68-10.94-3.32-21.18-6.27-30.46-8.77-.72-.19-1.47-.29-2.21-.29-3.5,0-6.61,2.09-7.93,5.34-5.84,14.5-6.51,32.42-1.92,51.82,5.67,23.95,26.27,41.21,50.1,41.98.6.02,1.2.03,1.79.03,24.6,0,45.25-18.2,55.47-33.79,6.64-10.13,8.27-17.74,6.94-20.79-.4-.92-1.33-2.02-2.5-3.4-2.76-3.26-6.88-8.11-10.37-17.62Z"/>
        </g>
        <g class="cls-1">
          <path class="cls-2" d="M240.65,464.52c-4.03-10.91-2.67-17.65-.78-21.73,4.06-8.79,12.53-9.48,16.74-20.15.46-1.15,4.17-10.55.28-14.57-5.12-5.27-19.97,2.16-23.63,3.98-4.4,2.21-8.08,4.76-11.06,7.26-2.99,2.49-5.29,4.92-6.98,6.87,14.47-23.21,14.84-30.91,14.84-30.91.21-4.27-.49-10.32-4.67-17.76,6.07,2.99,13.45,5.06,21.97,4.73,8.89-.35,18.09-3.28,25.56-8.21.68,2.86,1.65,5.85,3,8.9,4.43,10.02,9.08,11.97,11.44,17.42,6.73,15.56-15.42,50.72-46.71,64.16Z"/>
          <path class="cls-2" d="M250.43,170.51c-10.03,1.98-19.9,5.54-29.23,11.18-11.06,6.67-20.88,11.97-29.65,16.06l-.06.03-22.96,8.75c-11.44,3.17-20.48,3.49-27.92,1.75-14.58-3.42-22.98-14.77-31.35-28.16,21.59-10.65,43.29-19.3,64.52-25.66,0,0,24.23,20.95,76.64,16.06Z"/>
          <path class="cls-2" d="M200.94,354.57c-.2-.11-.41-.22-.63-.33-.29-.16-.58-.31-.87-.48-.1-.06-.21-.11-.3-.17-.4-.22-.81-.44-1.22-.67-.04-.03-.09-.06-.15-.09-.45-.25-.91-.5-1.36-.76-.07-.04-.15-.08-.23-.13-.37-.21-.75-.43-1.12-.64,0,0-.02,0-.03-.02-.68-.4-1.34-.8-2.02-1.2-1.07-.64-2.12-1.3-3.15-1.96-1.37-.86-2.69-1.73-3.98-2.6-.12-.08-.23-.16-.35-.24-.96-.64-1.89-1.29-2.8-1.93-2.75-1.92-5.29-3.82-7.64-5.64-.79-.6-1.54-1.19-2.28-1.78-.37-.3-.74-.6-1.1-.9-.69-.55-1.37-1.1-2.01-1.64-.03-.04-.06-.06-.08-.08-.62-.51-1.22-1.01-1.78-1.5-.4-.34-.78-.66-1.14-.98-.49-.4-.94-.8-1.36-1.18-2.18-1.92-3.8-3.45-4.78-4.39-.17-.17-.33-.31-.46-.44-.06-.06-.13-.13-.2-.18l-.15-.16c-.1-.09-.16-.16-.21-.21-15.93-15.97-24.77-32.63-29.49-43.23-1.58-5.69-4-11.11-7.68-13.97-2.11-1.64-4.25-2.47-4.25-2.47-4.53-1.77-7.52-.52-10.46-1.1-2.75-.53-6.43-2.87-9.93-11.33,3.74-2.1,9.65-6.11,14.62-13.07,4.62-6.48,6.75-13.15,7.68-18.55.1-.57.93-.54,1,.03.64,4.96,2.21,10.88,5.81,15.46.4-4.01,1.6-10.71,5.73-17.76,2.64-4.5,5.65-7.77,8.06-9.98,7.44,1.75,16.48,1.42,27.92-1.75,0,0-22.44,86.51,32.4,148.04Z"/>
          <path class="cls-2" d="M259.47,54.95c20.13,7,34.92,25.05,42.39,44.52,2.42,6.59,4.07,13.46,4.26,20.52.07,2.47-1.88,4.52-4.35,4.59-1.62.04-3.05-.78-3.88-2.04-1.89-2.73-3.57-5.44-5.27-8.1-4.97-7.8-10.04-15.55-15.49-22.9-5.22-7.06-11.43-14.81-16.9-21.81-1.96-2.53-3.98-5.08-5.88-7.89-2.43-3.49,1.12-8.2,5.12-6.88h0Z"/>
        </g>
      </g>
    </g>
  </g>
</svg>